<svg width="18" height="18" viewBox="0 0 18 18" fill="none" xmlns="http://www.w3.org/2000/svg">
<path d="M9 17.15H9.00017C11.1609 17.1476 13.2325 16.2882 14.7603 14.7603C16.2882 13.2325 17.1476 11.1609 17.15 9.00017V9C17.15 7.38808 16.672 5.81237 15.7765 4.47211C14.8809 3.13185 13.6081 2.08724 12.1189 1.47039C10.6297 0.853531 8.99096 0.692134 7.41002 1.0066C5.82907 1.32107 4.37688 2.09729 3.23708 3.23708C2.09729 4.37688 1.32107 5.82907 1.0066 7.41002C0.692134 8.99096 0.853531 10.6297 1.47039 12.1189C2.08724 13.6081 3.13185 14.8809 4.47211 15.7765C5.81237 16.672 7.38808 17.15 9 17.15ZM7.88387 13.9115L7.88376 13.9112C7.44662 12.5882 7.20459 11.2089 7.16506 9.81667H10.8358C10.7963 11.2089 10.5543 12.5882 10.1171 13.9112L10.117 13.9114C9.96085 14.387 9.72415 14.8321 9.41728 15.2276C9.18847 15.4919 9.04761 15.5167 9 15.5167C8.9524 15.5167 8.81154 15.4919 8.58275 15.2276C8.27619 14.8321 8.0398 14.387 7.88387 13.9115ZM11.6532 14.465L11.6532 14.465L11.6543 14.4616C12.1538 12.9617 12.4284 11.3964 12.4695 9.81667H15.4659C15.3161 11.0051 14.8414 12.1304 14.0926 13.0681C13.3857 13.9533 12.4617 14.6373 11.4132 15.0552C11.5012 14.8618 11.5813 14.6649 11.6532 14.465ZM3.9092 13.0673C3.16053 12.1298 2.68562 11.0048 2.53513 9.81667H5.5305C5.57149 11.3966 5.84643 12.9619 6.3466 14.4617L6.34656 14.4617L6.34773 14.465C6.41959 14.6649 6.49961 14.8617 6.58757 15.0549C5.53959 14.6365 4.61596 13.9524 3.9092 13.0673ZM14.0939 4.93192C14.843 5.86979 15.3179 6.99545 15.4676 8.18422H12.4713C12.4302 6.60445 12.1556 5.03916 11.6561 3.53928L11.6561 3.53927L11.6549 3.53593C11.583 3.33582 11.5029 3.1388 11.4148 2.94537C12.4631 3.36316 13.387 4.04693 14.0939 4.93192ZM7.88288 4.08792L7.88293 4.08777C8.03929 3.61254 8.27598 3.16765 8.58272 2.77245C8.81145 2.50826 8.95319 2.48334 9 2.48334C9.04681 2.48334 9.18855 2.50826 9.41728 2.77245C9.72402 3.16765 9.96072 3.61254 10.1171 4.08777L10.1171 4.08795C10.5543 5.41121 10.7963 6.79083 10.8358 8.18334H7.16502C7.20424 6.79086 7.44599 5.41123 7.88288 4.08792ZM6.34682 3.53599L6.34679 3.53598L6.3457 3.53924C5.84596 5.03876 5.57132 6.60381 5.53049 8.18334H2.53336C2.68392 6.99508 3.15896 5.87003 3.90779 4.93249C4.61474 4.04737 5.53862 3.3633 6.58685 2.94499C6.49879 3.13857 6.41871 3.33573 6.34682 3.53599Z" fill="white" stroke="white" stroke-width="0.3"/>
</svg>
