<svg width="11" height="11" viewBox="0 0 11 11" fill="none" xmlns="http://www.w3.org/2000/svg">
<path d="M9.29688 6.40195H9.19687V6.50195V8.94531C9.19687 9.08394 9.08394 9.19688 8.94531 9.19688H2.05469C1.91606 9.19688 1.80313 9.08394 1.80313 8.94531V6.50195V6.40195H1.70312H1H0.9V6.50195V8.94531C0.9 9.5821 1.4179 10.1 2.05469 10.1H8.94531C9.5821 10.1 10.1 9.5821 10.1 8.94531V6.50195V6.40195H10H9.29688Z" fill="#8F98BB" stroke="#8F98BB" stroke-width="0.2"/>
<path d="M7.25832 5.07273L7.18761 5.00202L7.1169 5.07273L5.95167 6.23796V1V0.9H5.85167H5.14855H5.04855V1V6.23796L3.88332 5.07273L3.81261 5.00202L3.7419 5.07273L3.24472 5.56991L3.17401 5.64062L3.24472 5.71134L5.4294 7.89602L5.50011 7.96673L5.57082 7.89602L7.7555 5.71134L7.82621 5.64062L7.7555 5.56991L7.25832 5.07273Z" fill="#8F98BB" stroke="#8F98BB" stroke-width="0.2"/>
</svg>
