<svg width="91" height="47" viewBox="0 0 91 47" fill="none" xmlns="http://www.w3.org/2000/svg">
<g opacity="0.5" filter="url(#filter0_f)">
<path d="M77 42.5L87 25.5L23.5 4.5L7 28L77 42.5Z" fill="url(#paint0_linear)"/>
</g>
<path d="M78.4645 19.3088C78.4847 18.2818 77.7236 17.4066 76.7038 17.2839L13.3593 9.66353C12.5399 9.56495 11.7441 9.97982 11.3557 10.708L1.34527 29.4776C0.691696 30.7031 1.45544 32.2053 2.83069 32.3992L75.7653 42.6849C76.9535 42.8524 78.0207 41.9433 78.0442 40.7437L78.4645 19.3088Z" fill="url(#paint1_linear)"/>
<g filter="url(#filter1_d)">
<path d="M75.5 21.2585C75.5 20.2529 74.7533 19.4037 73.7559 19.275L14.9256 11.6839C14.0738 11.574 13.2469 12.0202 12.8712 12.7926L5.70259 27.528C5.10867 28.7489 5.87775 30.194 7.22212 30.3834L73.2211 39.679C74.4247 39.8485 75.5 38.9141 75.5 37.6986V21.2585Z" fill="url(#paint2_linear)"/>
</g>
<path d="M13.6892 16.5357L16.563 16.913C17.3402 17.0151 17.9286 17.1544 18.3283 17.331C18.7325 17.5081 19.0234 17.7256 19.201 17.9833C19.3831 18.2417 19.4886 18.5405 19.5176 18.8798C19.5517 19.2152 19.5237 19.7264 19.4335 20.4132L19.308 21.3688C19.2161 22.0692 19.0767 22.5703 18.89 22.8721C18.7033 23.174 18.4044 23.3852 17.9932 23.5059C17.5866 23.6272 17.0715 23.6469 16.448 23.565L15.6821 23.4645L15.1019 27.8836L12.2484 27.5089L13.6892 16.5357ZM16.2961 18.7878L15.9295 21.5802C16.0102 21.5954 16.08 21.6069 16.1387 21.6146C16.4008 21.649 16.5898 21.6095 16.7058 21.496C16.827 21.3786 16.9142 21.1166 16.9676 20.7099L17.086 19.8085C17.1352 19.4335 17.1085 19.1817 17.0059 19.0534C16.9032 18.925 16.6666 18.8364 16.2961 18.7878ZM25.5842 18.0975L25.7769 29.2852L22.8556 28.9016L22.9723 26.9106L21.9488 26.7762L21.5204 28.7263L18.5653 28.3383L21.4565 17.5555L25.5842 18.0975ZM23.1463 24.9547C23.1649 23.6931 23.2217 22.1401 23.3168 20.2956C22.7523 22.3543 22.3702 23.8646 22.1703 24.8265L23.1463 24.9547ZM34.4834 19.2659L31.5922 30.0487L27.2612 29.48L27.0549 18.2906L30.0643 18.6857C30.0153 21.7543 29.9283 24.3421 29.8034 26.4493C30.2295 24.3587 30.6316 22.504 31.0096 20.8851L31.4741 18.8708L34.4834 19.2659ZM37.8248 19.7047L36.3841 30.6779L33.5306 30.3032L34.9714 19.33L37.8248 19.7047ZM41.8237 20.2297L40.6713 29.0069L42.4064 29.2347L42.1181 31.4307L37.5295 30.8283L38.9703 19.855L41.8237 20.2297ZM47.1104 20.9238L45.6696 31.897L42.8162 31.5224L44.2569 20.5492L47.1104 20.9238ZM53.9324 28.3556C53.7876 29.4581 53.6579 30.2363 53.5431 30.6901C53.4335 31.1399 53.216 31.5365 52.8905 31.8799C52.5696 32.2238 52.163 32.4669 51.6709 32.6091C51.1788 32.7514 50.6233 32.7818 50.0042 32.7006C49.4168 32.6234 48.9006 32.4591 48.4556 32.2077C48.0157 31.9523 47.6786 31.6138 47.4444 31.1924C47.2102 30.7709 47.0956 30.3307 47.1007 29.8718C47.1058 29.4128 47.1825 28.6185 47.3308 27.4889L47.5773 25.6114C47.7221 24.5089 47.8493 23.7327 47.9589 23.2829C48.0737 22.8291 48.2915 22.4302 48.6124 22.0863C48.9379 21.7429 49.3467 21.5001 49.8388 21.3579C50.3309 21.2157 50.8865 21.1852 51.5055 21.2665C52.0929 21.3436 52.6066 21.5099 53.0465 21.7653C53.4915 22.0167 53.8311 22.3532 54.0653 22.7747C54.2996 23.1961 54.4141 23.6363 54.409 24.0953C54.4039 24.5543 54.3272 25.3486 54.1789 26.4782L53.9324 28.3556ZM51.5524 24.3752C51.6194 23.8646 51.6328 23.5354 51.5924 23.3876C51.5572 23.2359 51.4514 23.1485 51.2752 23.1254C51.1261 23.1058 51.0032 23.1494 50.9064 23.2562C50.8148 23.3591 50.7319 23.6929 50.6577 24.2577L49.9849 29.3817C49.9013 30.0188 49.8745 30.4152 49.9047 30.5708C49.9393 30.7271 50.0515 30.8177 50.2413 30.8426C50.4356 30.8681 50.5711 30.7985 50.6479 30.634C50.7246 30.4694 50.8054 30.064 50.8903 29.4179L51.5524 24.3752ZM62.218 22.9074L60.7772 33.8806L58.2763 33.5522L57.4469 28.3689L56.7919 33.3574L54.4061 33.0441L55.8469 22.0709L58.2327 22.3842L59.1835 27.5352L59.8322 22.5942L62.218 22.9074ZM70.2621 28.8036C70.6594 28.9982 70.9386 29.2693 71.0998 29.6168C71.2616 29.9598 71.2654 30.7187 71.1112 31.8935C70.9967 32.7656 70.8083 33.4303 70.546 33.8877C70.2843 34.3406 69.8928 34.6615 69.3716 34.8505C68.851 35.0349 68.2088 35.077 67.4452 34.9767C66.5776 34.8628 65.9143 34.6286 65.4553 34.2742C65.0013 33.9158 64.7229 33.5162 64.6199 33.0752C64.522 32.6303 64.5416 31.8859 64.6787 30.8421L64.7926 29.9746L67.5308 30.3341L67.2967 32.1167C67.2344 32.5911 67.2218 32.8974 67.2588 33.0356C67.3009 33.1698 67.4192 33.2497 67.6135 33.2752C67.8258 33.3031 67.9766 33.2401 68.0657 33.0863C68.1548 32.9326 68.2445 32.5123 68.3347 31.8255L68.4344 31.0664C68.4895 30.6461 68.4824 30.3327 68.413 30.1259C68.3437 29.9191 68.2202 29.7742 68.0427 29.6912C67.8657 29.6036 67.5112 29.5203 66.9792 29.4412L67.1884 27.8485C67.839 27.9339 68.2444 27.9618 68.4046 27.9323C68.5647 27.9028 68.6897 27.8089 68.7794 27.6506C68.8691 27.4923 68.9374 27.2347 68.9843 26.8777L69.0644 26.2677C69.1148 25.8836 69.1074 25.6253 69.0421 25.4926C68.9813 25.3605 68.8673 25.2835 68.7001 25.2615C68.5103 25.2366 68.3707 25.2849 68.2812 25.4065C68.1968 25.5241 68.127 25.793 68.0718 26.2132L67.9535 27.1147L65.2153 26.7551L65.3381 25.8198C65.4757 24.7715 65.808 24.0958 66.3351 23.7927C66.8627 23.4851 67.6484 23.3998 68.6921 23.5368C69.998 23.7083 70.8501 24.0799 71.2485 24.6516C71.6468 25.2233 71.7864 25.9632 71.6671 26.8714C71.5865 27.4859 71.4444 27.92 71.241 28.1737C71.0383 28.4229 70.7119 28.6328 70.2621 28.8036Z" fill="#446CFF"/>
<defs>
<filter id="filter0_f" x="3" y="0.5" width="88" height="46" filterUnits="userSpaceOnUse" color-interpolation-filters="sRGB">
<feFlood flood-opacity="0" result="BackgroundImageFix"/>
<feBlend mode="normal" in="SourceGraphic" in2="BackgroundImageFix" result="shape"/>
<feGaussianBlur stdDeviation="2" result="effect1_foregroundBlur"/>
</filter>
<filter id="filter1_d" x="3.49951" y="9.66742" width="74.0005" height="32.0315" filterUnits="userSpaceOnUse" color-interpolation-filters="sRGB">
<feFlood flood-opacity="0" result="BackgroundImageFix"/>
<feColorMatrix in="SourceAlpha" type="matrix" values="0 0 0 0 0 0 0 0 0 0 0 0 0 0 0 0 0 0 127 0"/>
<feOffset/>
<feGaussianBlur stdDeviation="1"/>
<feColorMatrix type="matrix" values="0 0 0 0 0 0 0 0 0 0 0 0 0 0 0 0 0 0 0.65 0"/>
<feBlend mode="normal" in2="BackgroundImageFix" result="effect1_dropShadow"/>
<feBlend mode="normal" in="SourceGraphic" in2="effect1_dropShadow" result="shape"/>
</filter>
<linearGradient id="paint0_linear" x1="44" y1="10" x2="37.5" y2="33" gradientUnits="userSpaceOnUse">
<stop stop-opacity="0"/>
<stop offset="1"/>
</linearGradient>
<linearGradient id="paint1_linear" x1="42.5" y1="13.5" x2="35.5" y2="49" gradientUnits="userSpaceOnUse">
<stop stop-color="#224ADA"/>
<stop offset="1" stop-color="#A9B2D3"/>
</linearGradient>
<linearGradient id="paint2_linear" x1="38" y1="10" x2="38" y2="32" gradientUnits="userSpaceOnUse">
<stop stop-color="white"/>
<stop offset="1" stop-color="#D1DEE9"/>
</linearGradient>
</defs>
</svg>
