<svg width="324" height="330" viewBox="0 0 324 330" fill="none" xmlns="http://www.w3.org/2000/svg">
<g opacity="0.6" filter="url(#filter0_f)">
<path d="M216.149 132.826C230.316 159.78 237.84 202.893 211.211 216.889C184.582 230.885 119.152 218.206 104.985 191.252C90.819 164.299 122.721 107.535 149.35 93.5389C175.978 79.5433 201.983 105.873 216.149 132.826Z" fill="white"/>
<path d="M199.931 142.41C209.852 161.287 215.122 191.482 196.472 201.284C177.822 211.086 131.998 202.206 122.076 183.329C112.155 164.452 134.498 124.697 153.147 114.895C171.797 105.093 190.009 123.533 199.931 142.41Z" fill="white"/>
<path d="M199.931 142.41C209.852 161.287 215.122 191.482 196.472 201.284C177.822 211.086 131.998 202.206 122.076 183.329C112.155 164.452 134.498 124.697 153.147 114.895C171.797 105.093 190.009 123.533 199.931 142.41Z" fill="url(#paint0_linear)"/>
<path d="M199.931 142.41C209.852 161.287 215.122 191.482 196.472 201.284C177.822 211.086 131.998 202.206 122.076 183.329C112.155 164.452 134.498 124.697 153.147 114.895C171.797 105.093 190.009 123.533 199.931 142.41Z" fill="url(#paint1_linear)"/>
</g>
<defs>
<filter id="filter0_f" x="0.347412" y="0.532959" width="323.352" height="328.553" filterUnits="userSpaceOnUse" color-interpolation-filters="sRGB">
<feFlood flood-opacity="0" result="BackgroundImageFix"/>
<feBlend mode="normal" in="SourceGraphic" in2="BackgroundImageFix" result="shape"/>
<feGaussianBlur stdDeviation="37" result="effect1_foregroundBlur"/>
</filter>
<linearGradient id="paint0_linear" x1="131.67" y1="106.803" x2="102.542" y2="210.048" gradientUnits="userSpaceOnUse">
<stop stop-color="#518CFF"/>
<stop offset="1" stop-color="#E961FF"/>
</linearGradient>
<linearGradient id="paint1_linear" x1="113.029" y1="145.987" x2="211.875" y2="141.33" gradientUnits="userSpaceOnUse">
<stop stop-color="#446CFF"/>
<stop offset="1" stop-color="#44A5FF"/>
</linearGradient>
</defs>
</svg>
