<svg width="87" height="25" viewBox="0 0 87 25" fill="none" xmlns="http://www.w3.org/2000/svg">
<g opacity="0.8" filter="url(#filter0_f)">
<path d="M6.02424 23L2 8H85L80.4727 23H6.02424Z" fill="url(#paint0_linear)"/>
</g>
<path d="M10.0999 1.47717C10.336 0.605364 11.1272 0 12.0304 0H73.6667C74.4741 0 75.2023 0.485475 75.5128 1.23077L83.8462 21.2308C84.3951 22.5481 83.4272 24 82 24H6.61372C5.29643 24 4.33891 22.7486 4.68327 21.4772L10.0999 1.47717Z" fill="url(#paint1_linear)"/>
<g filter="url(#filter1_d)">
<path d="M12.5901 3.42368C12.8444 2.57853 13.6227 2 14.5053 2H71.4627C72.242 2 72.9503 2.45261 73.2777 3.15975L80.6851 19.1598C81.2987 20.4852 80.3307 22 78.8701 22H9.69044C8.35001 22 7.38902 20.7073 7.77528 19.4237L12.5901 3.42368Z" fill="url(#paint2_linear)"/>
</g>
<path d="M18.6445 7.72314H21.3359C22.0638 7.72314 22.6224 7.78027 23.0117 7.89453C23.4053 8.00879 23.6994 8.17383 23.894 8.38965C24.0929 8.60547 24.2262 8.86784 24.2939 9.17676C24.3659 9.48145 24.4019 9.9554 24.4019 10.5986V11.4937C24.4019 12.1496 24.3341 12.6278 24.1987 12.9282C24.0633 13.2287 23.8136 13.4593 23.4497 13.6201C23.09 13.7809 22.6182 13.8613 22.0342 13.8613H21.3169V18H18.6445V7.72314ZM21.3169 9.48145V12.0967C21.3931 12.1009 21.4587 12.103 21.5137 12.103C21.7591 12.103 21.9284 12.0438 22.0215 11.9253C22.1188 11.8026 22.1675 11.5508 22.1675 11.1699V10.3257C22.1675 9.97445 22.1125 9.74593 22.0024 9.64014C21.8924 9.53434 21.6639 9.48145 21.3169 9.48145ZM29.7847 7.72314L31.3145 18H28.5786L28.4453 16.1528H27.4868L27.3281 18H24.5605L25.9189 7.72314H29.7847ZM28.3691 14.3311C28.2337 13.1673 28.0983 11.7306 27.9629 10.021C27.6921 11.9845 27.5228 13.4212 27.4551 14.3311H28.3691ZM38.1191 7.72314L36.7607 18H32.7046L31.1621 7.72314H33.9805C34.3063 10.5542 34.5391 12.9473 34.6787 14.9023C34.8184 12.9261 34.9644 11.1699 35.1167 9.63379L35.3008 7.72314H38.1191ZM41.2485 7.72314V18H38.5762V7.72314H41.2485ZM44.9937 7.72314V15.9434H46.6187V18H42.3213V7.72314H44.9937ZM49.9448 7.72314V18H47.2725V7.72314H49.9448ZM57.124 13.7407C57.124 14.7733 57.0986 15.5054 57.0479 15.937C57.0013 16.3644 56.849 16.7559 56.5908 17.1113C56.3369 17.4668 55.992 17.7397 55.5562 17.9302C55.1203 18.1206 54.6125 18.2158 54.0327 18.2158C53.4826 18.2158 52.9875 18.127 52.5474 17.9492C52.1115 17.7673 51.7603 17.4964 51.4937 17.1367C51.2271 16.777 51.0684 16.3856 51.0176 15.9624C50.9668 15.5392 50.9414 14.7987 50.9414 13.7407V11.9824C50.9414 10.9499 50.9647 10.2199 51.0112 9.79248C51.062 9.36084 51.2144 8.96729 51.4683 8.61182C51.7264 8.25635 52.0734 7.9834 52.5093 7.79297C52.9451 7.60254 53.453 7.50732 54.0327 7.50732C54.5828 7.50732 55.0758 7.59831 55.5117 7.78027C55.9518 7.95801 56.3052 8.22673 56.5718 8.58643C56.8384 8.94613 56.9971 9.33757 57.0479 9.76074C57.0986 10.1839 57.124 10.9245 57.124 11.9824V13.7407ZM54.4517 10.3638C54.4517 9.88558 54.4242 9.58089 54.3691 9.44971C54.3184 9.31429 54.2104 9.24658 54.0454 9.24658C53.9058 9.24658 53.7979 9.3016 53.7217 9.41162C53.6497 9.51742 53.6138 9.8348 53.6138 10.3638V15.1626C53.6138 15.7593 53.637 16.1274 53.6836 16.2671C53.7344 16.4067 53.8486 16.4766 54.0264 16.4766C54.2083 16.4766 54.3247 16.3962 54.3755 16.2354C54.4263 16.0745 54.4517 15.6916 54.4517 15.0864V10.3638ZM64.0938 7.72314V18H61.7515L60.3613 13.3281V18H58.127V7.72314H60.3613L61.8594 12.3506V7.72314H64.0938ZM71.3491 7.72314V18H68.7847V12.4902C68.7847 11.6947 68.7656 11.2165 68.7275 11.0557C68.6895 10.8949 68.5837 10.7743 68.4102 10.6938C68.2409 10.6092 67.86 10.5669 67.2676 10.5669H67.0137V9.36719C68.2536 9.10059 69.1951 8.55257 69.8384 7.72314H71.3491Z" fill="#446CFF"/>
<defs>
<filter id="filter0_f" x="0" y="6" width="87" height="19" filterUnits="userSpaceOnUse" color-interpolation-filters="sRGB">
<feFlood flood-opacity="0" result="BackgroundImageFix"/>
<feBlend mode="normal" in="SourceGraphic" in2="BackgroundImageFix" result="shape"/>
<feGaussianBlur stdDeviation="1" result="effect1_foregroundBlur"/>
</filter>
<filter id="filter1_d" x="5.68896" y="0" width="77.1834" height="24" filterUnits="userSpaceOnUse" color-interpolation-filters="sRGB">
<feFlood flood-opacity="0" result="BackgroundImageFix"/>
<feColorMatrix in="SourceAlpha" type="matrix" values="0 0 0 0 0 0 0 0 0 0 0 0 0 0 0 0 0 0 127 0"/>
<feOffset/>
<feGaussianBlur stdDeviation="1"/>
<feColorMatrix type="matrix" values="0 0 0 0 0 0 0 0 0 0 0 0 0 0 0 0 0 0 0.65 0"/>
<feBlend mode="normal" in2="BackgroundImageFix" result="effect1_dropShadow"/>
<feBlend mode="normal" in="SourceGraphic" in2="effect1_dropShadow" result="shape"/>
</filter>
<linearGradient id="paint0_linear" x1="43.5" y1="8" x2="43.5" y2="23" gradientUnits="userSpaceOnUse">
<stop stop-opacity="0"/>
<stop offset="1"/>
</linearGradient>
<linearGradient id="paint1_linear" x1="44.5" y1="0" x2="44.5" y2="24" gradientUnits="userSpaceOnUse">
<stop stop-color="#224ADA"/>
<stop offset="1" stop-color="#A9B2D3"/>
</linearGradient>
<linearGradient id="paint2_linear" x1="44.5" y1="1" x2="44.5" y2="23" gradientUnits="userSpaceOnUse">
<stop stop-color="white"/>
<stop offset="1" stop-color="#D1DEE9"/>
</linearGradient>
</defs>
</svg>
