<svg width="73" height="71" viewBox="0 0 73 71" fill="none" xmlns="http://www.w3.org/2000/svg">
<path d="M46.3973 11.6016C57.6301 16.7869 70.7185 28.8245 65.5956 39.922C60.4728 51.0195 36.2443 63.1144 25.0115 57.9291C13.7786 52.7437 10.0239 26.555 15.1468 15.4575C20.2697 4.35997 35.1644 6.41627 46.3973 11.6016Z" fill="white"/>
<path d="M43.5391 18.7023C51.4061 22.3339 60.5725 30.7644 56.9847 38.5366C53.3969 46.3088 36.4285 54.7795 28.5615 51.1479C20.6945 47.5163 18.0649 29.175 21.6527 21.4028C25.2405 13.6306 35.6721 15.0708 43.5391 18.7023Z" fill="white"/>
<path d="M43.5391 18.7023C51.4061 22.3339 60.5725 30.7644 56.9847 38.5366C53.3969 46.3088 36.4285 54.7795 28.5615 51.1479C20.6945 47.5163 18.0649 29.175 21.6527 21.4028C25.2405 13.6306 35.6721 15.0708 43.5391 18.7023Z" fill="url(#paint0_linear)"/>
<path d="M32 28.0046L34.0991 26L43 34.5L34.0991 43L32 40.9954L38.8018 34.5L32 28.0046Z" fill="white"/>
<defs>
<linearGradient id="paint0_linear" x1="12.7277" y1="24.1058" x2="28.8726" y2="64.5925" gradientUnits="userSpaceOnUse">
<stop stop-color="#446CFF"/>
<stop offset="1" stop-color="#44E9FF"/>
</linearGradient>
</defs>
</svg>
