<svg width="11" height="11" viewBox="0 0 11 11" fill="none" xmlns="http://www.w3.org/2000/svg">
<path d="M0.902661 7.78712C0.921108 7.97668 1.0769 8.12191 1.26546 8.13027L1.26546 8.13037H1.26978C1.26978 8.13037 1.27014 8.13037 1.27107 8.13039L1.27558 8.13051L1.29082 8.13091C1.30342 8.1312 1.3204 8.1315 1.34132 8.1315C1.64026 8.1315 2.76396 8.08426 4.04297 7.42933C4.32964 7.48414 4.62986 7.5117 4.9375 7.5117C7.14295 7.5117 8.9745 6.04702 8.9745 4.20585C8.9745 2.36468 7.14295 0.9 4.9375 0.9C2.73204 0.9 0.900488 2.36468 0.900488 4.20585C0.900488 5.10835 1.34051 5.95141 2.11098 6.5672C1.99804 6.73593 1.86897 6.9051 1.72542 7.0469C1.55969 7.2106 1.38036 7.33214 1.19014 7.37932L1.19005 7.37934C1.00654 7.42503 0.883696 7.59861 0.902661 7.78712ZM0.902661 7.78712C0.902654 7.78705 0.902647 7.78698 0.902641 7.78691L1.00218 7.77728L0.902684 7.78735C0.902676 7.78727 0.902668 7.78719 0.902661 7.78712ZM4.07114 6.65617C4.34395 6.71793 4.63509 6.74927 4.9375 6.74927C6.76745 6.74927 8.21207 5.58652 8.21207 4.20585C8.21207 2.82462 6.76746 1.66243 4.9375 1.66243C3.10753 1.66243 1.66292 2.82462 1.66292 4.20585C1.66292 4.94864 2.08219 5.65825 2.83087 6.14863C3.00071 6.25984 3.05431 6.48545 2.95048 6.66109L4.07114 6.65617ZM4.07114 6.65617C3.98145 6.63552 3.88694 6.64864 3.80567 6.69263M4.07114 6.65617C4.07121 6.65619 4.07128 6.6562 4.07134 6.65622L4.04886 6.75366L4.07094 6.65613C4.07101 6.65614 4.07108 6.65616 4.07114 6.65617ZM4.07114 6.65617L3.80567 6.69263M3.80567 6.69263C3.38521 6.91937 2.97867 7.07037 2.61938 7.17079C2.74394 7.00046 2.85349 6.82532 2.95046 6.66113L3.80567 6.69263Z" fill="#8F98BB" stroke="#8F98BB" stroke-width="0.2"/>
<path d="M3.57696 8.07616C3.43743 8.23411 3.45288 8.47494 3.61049 8.61428L3.61063 8.6144C4.50063 9.39824 5.8704 9.75142 7.16403 9.5107C8.19368 10.0322 9.11597 10.1 9.5277 10.1C9.66007 10.1 9.73963 10.093 9.75441 10.0917L9.75482 10.0917C9.93914 10.0741 10.085 9.92639 10.0987 9.74137L10.0987 9.74134C10.1125 9.55612 9.9912 9.38854 9.81162 9.34289L9.81155 9.34287C9.54159 9.27444 9.26679 9.06205 8.99702 8.68733C9.69846 8.11384 10.099 7.33686 10.099 6.50617C10.099 6.09895 10.0017 5.69844 9.81118 5.31747C9.71637 5.12786 9.48552 5.05438 9.29962 5.14733L9.29948 5.1474C9.11136 5.24184 9.03508 5.47044 9.12884 5.65874L9.12892 5.65888C9.26704 5.93513 9.33658 6.21967 9.33658 6.50617C9.33658 7.179 8.95464 7.82511 8.27104 8.27401C8.09997 8.38561 8.04844 8.61211 8.15256 8.78717C8.23606 8.92814 8.32151 9.05813 8.40931 9.17708C8.1006 9.09303 7.75675 8.96601 7.40145 8.77478C7.32057 8.73092 7.22638 8.71912 7.13879 8.738L7.13838 8.73809C6.03555 8.9806 4.85137 8.69184 4.1152 8.04254L4.11513 8.04248C3.95618 7.90254 3.71585 7.91829 3.57696 8.07616ZM3.57696 8.07616C3.57699 8.07612 3.57702 8.07608 3.57706 8.07605L3.65198 8.14228L3.57688 8.07625C3.5769 8.07622 3.57693 8.07619 3.57696 8.07616ZM9.74536 9.99211C9.73298 9.99324 9.65649 9.99999 9.5277 9.99999C9.12218 9.99999 8.20261 9.93249 7.17898 9.40606C5.90283 9.65409 4.54906 9.30763 3.67673 8.53936L9.74536 9.99211ZM9.74536 9.99211C9.88146 9.97918 9.98889 9.87006 9.99901 9.73396L9.74536 9.99211Z" fill="#8F98BB" stroke="#8F98BB" stroke-width="0.2"/>
</svg>
