<svg width="246" height="245" viewBox="0 0 246 245" fill="none" xmlns="http://www.w3.org/2000/svg">
<path d="M177 90.3316C191.166 117.285 198.69 160.399 172.062 174.394C145.433 188.39 80.0022 175.711 65.8359 148.757C51.6696 121.804 83.5714 65.0399 110.2 51.0443C136.829 37.0487 162.834 63.3781 177 90.3316Z" fill="white"/>
<path d="M160.781 99.9154C170.703 118.792 175.972 148.987 157.323 158.789C138.673 168.591 92.8484 159.711 82.927 140.834C73.0056 121.957 95.3481 82.2023 113.998 72.4004C132.647 62.5985 150.86 81.0384 160.781 99.9154Z" fill="white"/>
<path d="M160.781 99.9154C170.703 118.792 175.972 148.987 157.323 158.789C138.673 168.591 92.8484 159.711 82.927 140.834C73.0056 121.957 95.3481 82.2023 113.998 72.4004C132.647 62.5985 150.86 81.0384 160.781 99.9154Z" fill="url(#paint0_linear)"/>
<path d="M160.781 99.9154C170.703 118.792 175.972 148.987 157.323 158.789C138.673 168.591 92.8484 159.711 82.927 140.834C73.0056 121.957 95.3481 82.2023 113.998 72.4004C132.647 62.5985 150.86 81.0384 160.781 99.9154Z" fill="url(#paint1_linear)"/>
<defs>
<linearGradient id="paint0_linear" x1="92.5202" y1="64.3079" x2="63.3929" y2="167.553" gradientUnits="userSpaceOnUse">
<stop stop-color="#518CFF"/>
<stop offset="1" stop-color="#E961FF"/>
</linearGradient>
<linearGradient id="paint1_linear" x1="73.8795" y1="103.492" x2="172.726" y2="98.8354" gradientUnits="userSpaceOnUse">
<stop stop-color="#446CFF"/>
<stop offset="1" stop-color="#44A5FF"/>
</linearGradient>
</defs>
</svg>
