<svg width="123" height="118" viewBox="0 0 123 118" fill="none" xmlns="http://www.w3.org/2000/svg">
<path d="M77.1984 18.9526C96.1819 27.7158 118.301 48.0592 109.644 66.8141C100.986 85.5689 60.0399 106.009 41.0564 97.2461C22.0728 88.4829 15.7273 44.2239 24.385 25.469C33.0426 6.71418 58.2148 10.1893 77.1984 18.9526Z" fill="white"/>
<path d="M72.3679 30.9528C85.6631 37.0901 101.154 51.3377 95.0911 64.4728C89.0276 77.6078 60.3509 91.9233 47.0557 85.7859C33.7605 79.6486 29.3165 48.6516 35.3799 35.5166C41.4433 22.3816 59.0727 24.8154 72.3679 30.9528Z" fill="white"/>
<path d="M72.3679 30.9528C85.6631 37.0901 101.154 51.3377 95.0911 64.4728C89.0276 77.6078 60.3509 91.9233 47.0557 85.7859C33.7605 79.6486 29.3165 48.6516 35.3799 35.5166C41.4433 22.3816 59.0727 24.8154 72.3679 30.9528Z" fill="url(#paint0_linear)"/>
<path d="M52.867 46.6737L56.4145 43.2859L71.457 57.6509L56.4145 72.0159L52.867 68.6282L64.362 57.6509L52.867 46.6737Z" fill="white"/>
<defs>
<linearGradient id="paint0_linear" x1="20.2965" y1="40.0847" x2="47.5814" y2="108.507" gradientUnits="userSpaceOnUse">
<stop stop-color="#446CFF"/>
<stop offset="1" stop-color="#44E9FF"/>
</linearGradient>
</defs>
</svg>
