<svg width="95" height="45" viewBox="0 0 95 45" fill="none" xmlns="http://www.w3.org/2000/svg">
<g opacity="0.5" filter="url(#filter0_f)">
<path d="M17.5 40.5L4 20.5L68 4L87.5 26L17.5 40.5Z" fill="url(#paint0_linear)"/>
</g>
<path d="M16.0355 17.3088C16.0153 16.2818 16.7764 15.4066 17.7962 15.2839L81.1407 7.66353C81.9601 7.56495 82.7559 7.97982 83.1443 8.70803L93.1547 27.4776C93.8083 28.7031 93.0446 30.2053 91.6693 30.3992L18.7347 40.6849C17.5465 40.8524 16.4793 39.9433 16.4558 38.7437L16.0355 17.3088Z" fill="url(#paint1_linear)"/>
<g filter="url(#filter1_d)">
<path d="M19 18.2869C19 17.2692 19.7643 16.4137 20.7756 16.2995L79.5623 9.66232C80.4203 9.56545 81.2436 10.0301 81.604 10.8147L88.3549 25.5077C88.9209 26.7397 88.123 28.166 86.7769 28.3283L21.2394 36.23C20.0485 36.3736 19 35.4439 19 34.2444V18.2869Z" fill="url(#paint2_linear)"/>
</g>
<path d="M22.3842 20.2648L25.2642 19.9376C26.043 19.8491 26.6477 19.8423 27.0781 19.9173C27.5132 19.9917 27.8479 20.1325 28.0825 20.3398C28.3215 20.5466 28.4961 20.8111 28.6061 21.1334C28.7201 21.4507 28.8162 21.9535 28.8944 22.6418L29.0032 23.5995C29.0829 24.3013 29.0686 24.8212 28.9602 25.1592C28.8519 25.4972 28.6128 25.7743 28.2429 25.9906C27.8775 26.2064 27.3824 26.3498 26.7575 26.4208L25.99 26.508L26.4932 30.9366L23.6336 31.2614L22.3842 20.2648ZM25.4575 21.8214L25.7755 24.6198C25.8575 24.615 25.9279 24.6093 25.9868 24.6026C26.2494 24.5728 26.4234 24.4888 26.5086 24.3507C26.5978 24.2076 26.6193 23.9322 26.573 23.5247L26.4703 22.6213C26.4276 22.2455 26.341 22.0077 26.2104 21.9078C26.0798 21.808 25.8288 21.7792 25.4575 21.8214ZM34.3046 18.9105L37.1909 29.7211L34.2635 30.0537L33.8963 28.0934L32.8707 28.2099L32.9254 30.2058L29.964 30.5422L30.1682 19.3804L34.3046 18.9105ZM33.5933 26.1533C33.3069 24.9245 32.9874 23.4037 32.6346 21.5907C32.5835 23.7247 32.5771 25.2826 32.6152 26.2644L33.5933 26.1533ZM43.2228 17.8972L43.0187 29.059L38.6784 29.5521L35.7785 18.743L38.7943 18.4004C39.4871 21.3901 40.0271 23.9225 40.4142 25.9975C40.3234 23.8659 40.2661 21.969 40.2424 20.3067L40.2071 18.2399L43.2228 17.8972ZM46.5714 17.5168L47.8208 28.5134L44.9613 28.8383L43.7119 17.8417L46.5714 17.5168ZM50.5788 17.0615L51.5782 25.8574L53.317 25.6599L53.567 27.8606L48.9687 28.383L47.7193 17.3864L50.5788 17.0615ZM55.8768 16.4596L57.1262 27.4562L54.2666 27.7811L53.0172 16.7844L55.8768 16.4596ZM64.2904 22.0258C64.4159 23.1307 64.4777 23.9171 64.4759 24.3852C64.478 24.8482 64.3626 25.2856 64.1296 25.6973C63.9011 26.1085 63.5653 26.4425 63.122 26.6993C62.6788 26.956 62.147 27.1197 61.5266 27.1901C60.9379 27.257 60.3973 27.2221 59.9048 27.0855C59.4163 26.9437 59.0075 26.6966 58.6785 26.3441C58.3495 25.9917 58.1321 25.5921 58.0263 25.1455C57.9206 24.6988 57.8033 23.9095 57.6747 22.7774L57.461 20.896C57.3354 19.7911 57.2716 19.0072 57.2695 18.5442C57.2713 18.0761 57.3865 17.6365 57.615 17.2253C57.848 16.8135 58.1861 16.4793 58.6293 16.2225C59.0726 15.9657 59.6044 15.8021 60.2247 15.7316C60.8134 15.6648 61.352 15.7022 61.8405 15.8439C62.3331 15.9806 62.7438 16.2252 63.0728 16.5776C63.4018 16.9301 63.6192 17.3297 63.725 17.7763C63.8308 18.223 63.948 19.0123 64.0766 20.1444L64.2904 22.0258ZM61.0203 18.7372C60.9622 18.2255 60.8957 17.9029 60.8209 17.7692C60.7501 17.6304 60.6264 17.5711 60.4498 17.5912C60.3003 17.6081 60.1916 17.6801 60.1234 17.8071C60.0593 17.9291 60.0594 18.2731 60.1237 18.8391L60.7071 23.974C60.7797 24.6125 60.8493 25.0036 60.9161 25.1474C60.9874 25.2906 61.1182 25.3515 61.3084 25.3298C61.5031 25.3077 61.6178 25.2075 61.6526 25.0293C61.6874 24.8511 61.668 24.4382 61.5944 23.7906L61.0203 18.7372ZM71.0167 14.7394L72.2661 25.7361L69.7597 26.0208L67.7043 21.1907L68.2722 26.1898L65.8814 26.4615L64.632 15.4648L67.0228 15.1932L69.1884 19.9626L68.6258 15.0111L71.0167 14.7394ZM81.5011 22.788L81.7141 24.6626L75.6758 25.3487L75.4975 23.7797C76.9538 20.6513 77.8101 18.7216 78.0665 17.9907C78.3269 17.2548 78.4349 16.6921 78.3907 16.3027C78.3567 16.0039 78.2795 15.7879 78.1588 15.6548C78.0422 15.5167 77.8798 15.4595 77.6715 15.4832C77.4632 15.5068 77.3162 15.6061 77.2306 15.7809C77.1495 15.9553 77.1365 16.2847 77.1915 16.7692L77.3104 17.8152L74.8516 18.0946L74.8061 17.6938C74.7361 17.078 74.7127 16.5899 74.736 16.2295C74.7588 15.8646 74.8751 15.4959 75.0851 15.1234C75.295 14.751 75.5892 14.4538 75.9676 14.232C76.346 14.0101 76.8137 13.8675 77.3707 13.8042C78.462 13.6803 79.317 13.8583 79.9357 14.3384C80.5584 14.8135 80.9168 15.4653 81.0109 16.294C81.0825 16.9234 80.9996 17.607 80.7624 18.3449C80.5297 19.0823 79.7729 20.6773 78.4921 23.1298L81.5011 22.788Z" fill="#446CFF"/>
<defs>
<filter id="filter0_f" x="0" y="0" width="91.5" height="44.5" filterUnits="userSpaceOnUse" color-interpolation-filters="sRGB">
<feFlood flood-opacity="0" result="BackgroundImageFix"/>
<feBlend mode="normal" in="SourceGraphic" in2="BackgroundImageFix" result="shape"/>
<feGaussianBlur stdDeviation="2" result="effect1_foregroundBlur"/>
</filter>
<filter id="filter1_d" x="17" y="7.64963" width="73.5391" height="30.595" filterUnits="userSpaceOnUse" color-interpolation-filters="sRGB">
<feFlood flood-opacity="0" result="BackgroundImageFix"/>
<feColorMatrix in="SourceAlpha" type="matrix" values="0 0 0 0 0 0 0 0 0 0 0 0 0 0 0 0 0 0 127 0"/>
<feOffset/>
<feGaussianBlur stdDeviation="1"/>
<feColorMatrix type="matrix" values="0 0 0 0 0 0 0 0 0 0 0 0 0 0 0 0 0 0 0.65 0"/>
<feBlend mode="normal" in2="BackgroundImageFix" result="effect1_dropShadow"/>
<feBlend mode="normal" in="SourceGraphic" in2="effect1_dropShadow" result="shape"/>
</filter>
<linearGradient id="paint0_linear" x1="50.5" y1="8" x2="57" y2="31" gradientUnits="userSpaceOnUse">
<stop stop-opacity="0"/>
<stop offset="1"/>
</linearGradient>
<linearGradient id="paint1_linear" x1="50.5" y1="11" x2="57" y2="41" gradientUnits="userSpaceOnUse">
<stop stop-color="#224ADA"/>
<stop offset="1" stop-color="#A9B2D3"/>
</linearGradient>
<linearGradient id="paint2_linear" x1="56.5" y1="8" x2="56.5" y2="30" gradientUnits="userSpaceOnUse">
<stop stop-color="white"/>
<stop offset="1" stop-color="#D1DEE9"/>
</linearGradient>
</defs>
</svg>
