<svg width="12" height="13" viewBox="0 0 12 13" fill="none" xmlns="http://www.w3.org/2000/svg">
<path d="M11.0815 9.91369C11.0815 10.5666 10.8609 11.0952 10.4263 11.4846C9.99687 11.8693 9.42889 12.0642 8.7383 12.0642H2.34286C1.65226 12.0642 1.08428 11.8693 0.655129 11.4846C0.220302 11.0949 0 10.5664 0 9.91369C0 9.6626 0.00881613 9.41417 0.0264484 9.17529C0.0443846 8.93106 0.0806625 8.66527 0.134167 8.38489C0.188077 8.10222 0.25739 7.835 0.340383 7.59077C0.426518 7.33796 0.543053 7.08858 0.687252 6.8497C0.837025 6.60175 1.01294 6.38576 1.21014 6.20793C1.41686 6.02181 1.66959 5.87231 1.96174 5.76337C2.25287 5.65499 2.57563 5.60004 2.92097 5.60004C3.05646 5.60004 3.18769 5.65222 3.44062 5.80735C3.5989 5.90456 3.78131 6.01522 3.98266 6.13638C4.15655 6.24075 4.39205 6.33863 4.68319 6.42707C4.93906 6.50501 5.19878 6.54852 5.45536 6.55605C5.48363 6.55701 5.5119 6.55748 5.54017 6.55748C5.82513 6.55748 6.11332 6.5135 6.39746 6.42707C6.6886 6.33863 6.92441 6.24075 7.09819 6.13638C7.30167 6.01398 7.48408 5.90341 7.64003 5.80763C7.89317 5.65222 8.02419 5.60004 8.15998 5.60004C8.50502 5.60004 8.82778 5.65499 9.11911 5.76337C9.41126 5.87231 9.66399 6.02209 9.87051 6.20793C10.068 6.38576 10.2439 6.60175 10.3936 6.8497C10.5379 7.08877 10.6546 7.33796 10.7405 7.59049C10.8236 7.835 10.8931 8.10222 10.947 8.38508C11.0002 8.66575 11.0366 8.93154 11.0544 9.1751C11.0723 9.41322 11.0812 9.66164 11.0815 9.91369Z" fill="#6AA9FF"/>
<path d="M8.31138 2.86786C8.31138 3.65599 8.02874 4.33818 7.4712 4.89582C6.91365 5.45337 6.23136 5.736 5.44324 5.736H5.44188C4.65475 5.73573 3.97292 5.45309 3.41538 4.89582C2.85774 4.33818 2.5752 3.65599 2.5752 2.86786C2.5752 2.08001 2.85774 1.39773 3.41538 0.840181C3.97265 0.282816 4.65448 0.000272551 5.44188 0H5.44324C6.23109 0 6.91338 0.282635 7.4712 0.840181C8.02874 1.39773 8.31138 2.08001 8.31138 2.86786Z" fill="#FFBB85"/>
<path d="M5.44277 5.736H5.44141V0H5.44277C6.23062 0 6.9129 0.282635 7.47072 0.840181C8.02827 1.39773 8.31091 2.08001 8.31091 2.86786C8.31091 3.65599 8.02827 4.33818 7.47072 4.89582C6.91318 5.45337 6.23089 5.736 5.44277 5.736Z" fill="#F5A86C"/>
<path d="M11.0813 9.91369C11.0813 10.5666 10.864 11.0952 10.4361 11.4846C10.0131 11.8693 9.45377 12.0642 8.77365 12.0642H5.54053V6.55605C5.56837 6.55701 5.59621 6.55748 5.62406 6.55748C5.90469 6.55748 6.18851 6.5135 6.46834 6.42707C6.75506 6.33863 6.98728 6.24075 7.15844 6.13638C7.35883 6.01398 7.53846 5.90341 7.69205 5.80763C7.94134 5.65222 8.07038 5.60004 8.20411 5.60004C8.54392 5.60004 8.86177 5.65499 9.14869 5.76337C9.4364 5.87231 9.6853 6.02209 9.88868 6.20793C10.0832 6.38576 10.2564 6.60175 10.4038 6.8497C10.5459 7.08877 10.6609 7.33796 10.7454 7.59049C10.8273 7.835 10.8957 8.10222 10.9488 8.38508C11.0012 8.66575 11.037 8.93154 11.0546 9.1751C11.0723 9.41322 11.081 9.66164 11.0813 9.91369Z" fill="#2682FF"/>
</svg>
