<svg width="197" height="190" viewBox="0 0 197 190" fill="none" xmlns="http://www.w3.org/2000/svg">
<path d="M124.215 31.0339C154.582 45.052 189.966 77.5945 176.116 107.596C162.267 137.597 96.7675 170.295 66.4004 156.276C36.0333 142.258 25.8828 71.4592 39.732 41.458C53.5812 11.4567 93.848 17.0158 124.215 31.0339Z" fill="white"/>
<path d="M116.488 50.2301C137.756 60.0477 162.537 82.839 152.838 103.85C143.138 124.862 97.2653 147.762 75.9976 137.944C54.7299 128.126 47.6209 78.5421 57.3203 57.5306C67.0197 36.5192 95.2207 40.4124 116.488 50.2301Z" fill="white"/>
<path d="M116.488 50.2301C137.756 60.0477 162.537 82.839 152.838 103.85C143.138 124.862 97.2653 147.762 75.9976 137.944C54.7299 128.126 47.6209 78.5421 57.3203 57.5306C67.0197 36.5192 95.2207 40.4124 116.488 50.2301Z" fill="url(#paint0_linear)"/>
<path d="M116.488 50.2301C137.756 60.0477 162.537 82.839 152.838 103.85C143.138 124.862 97.2653 147.762 75.9976 137.944C54.7299 128.126 47.6209 78.5421 57.3203 57.5306C67.0197 36.5192 95.2207 40.4124 116.488 50.2301Z" fill="url(#paint1_linear)"/>
<path d="M122.242 88.1204C121.864 87.3635 121.251 86.7499 120.494 86.3726L89.3501 70.8006C87.4268 69.8396 85.0887 70.6195 84.1274 72.5428C83.8571 73.0837 83.7166 73.6802 83.7169 74.2849V105.429C83.7159 107.579 85.458 109.323 87.6081 109.324C88.2128 109.324 88.8093 109.184 89.3501 108.913L120.494 93.3412C122.418 92.3823 123.201 90.0447 122.242 88.1204ZM91.503 99.1301V80.5838L110.049 89.8569L91.503 99.1301Z" fill="white"/>
<defs>
<linearGradient id="paint0_linear" x1="33.1921" y1="64.838" x2="76.8385" y2="174.29" gradientUnits="userSpaceOnUse">
<stop stop-color="#518CFF"/>
<stop offset="1" stop-color="#E961FF"/>
</linearGradient>
<linearGradient id="paint1_linear" x1="43.1457" y1="111.45" x2="126.176" y2="41.3027" gradientUnits="userSpaceOnUse">
<stop stop-color="#446CFF"/>
<stop offset="1" stop-color="#44A5FF"/>
</linearGradient>
</defs>
</svg>
