<svg width="342" height="254" viewBox="0 0 342 254" fill="none" xmlns="http://www.w3.org/2000/svg">
<g opacity="0.6" filter="url(#filter0_f)">
<path d="M298 117.48L246.959 79L151.106 118.231L182.655 117.48L44 224.475L209.984 247L257.006 117.48H298Z" fill="#2442B1"/>
</g>
<path d="M335.283 43.5413L280.394 0.246033L180.398 46.4397H208.476L79.134 151.689L253.946 177.231L294.705 44.2659L335.283 43.5413Z" fill="url(#paint0_linear)"/>
<g filter="url(#filter1_ii)">
<path d="M324.414 41.5487L278.401 4.41254L191.992 42.2733L220.432 41.5487L95.4377 144.805L245.069 166.543L287.459 41.5487H324.414Z" fill="#446CFF"/>
</g>
<path d="M338 56.5843L335.102 43.5413H294.705L254.127 177.413L78.9529 151.689L87.1047 164.551L260.648 193.716L298.871 56.5843H338Z" fill="#7B7B7B"/>
<path d="M338 56.5843L335.102 43.5413H294.705L254.127 177.413L78.9529 151.689L87.1047 164.551L260.648 193.716L298.871 56.5843H338Z" fill="url(#paint1_linear)"/>
<path d="M184.746 57.6712L179.673 46.4398H208.477L195.071 57.6712H184.746Z" fill="#C4C4C4"/>
<g opacity="0.5" filter="url(#filter2_f)">
<path d="M226 147.5L236 130.5L172.5 109.5L156 133L226 147.5Z" fill="url(#paint2_linear)"/>
</g>
<path d="M227.465 124.309C227.485 123.282 226.724 122.407 225.704 122.284L162.359 114.664C161.54 114.565 160.744 114.98 160.356 115.708L150.345 134.478C149.692 135.703 150.455 137.205 151.831 137.399L224.765 147.685C225.953 147.852 227.021 146.943 227.044 145.744L227.465 124.309Z" fill="url(#paint3_linear)"/>
<g filter="url(#filter3_d)">
<path d="M224.5 126.259C224.5 125.253 223.753 124.404 222.756 124.275L163.926 116.684C163.074 116.574 162.247 117.02 161.871 117.793L154.703 132.528C154.109 133.749 154.878 135.194 156.222 135.383L222.221 144.679C223.425 144.849 224.5 143.914 224.5 142.699V126.259Z" fill="url(#paint4_linear)"/>
</g>
<path d="M171.229 122.657L168.521 133.464L164.956 132.996C164.852 131.268 164.817 129.314 164.85 127.135C164.616 128.038 164.101 129.919 163.302 132.779L159.757 132.313L159.924 121.173L162.696 121.537L162.485 125.404L162.298 129.137C162.653 127.24 163.244 124.766 164.072 121.717L167.041 122.107C167.039 122.433 166.985 123.653 166.877 125.767L166.642 129.977C167.148 127.345 167.753 124.784 168.457 122.293L171.229 122.657ZM177.238 128.672L176.948 130.875C176.842 131.684 176.723 132.272 176.592 132.641C176.462 133.006 176.242 133.335 175.932 133.63C175.622 133.92 175.247 134.117 174.806 134.22C174.37 134.319 173.881 134.333 173.339 134.262C172.734 134.182 172.229 134.049 171.826 133.863C171.424 133.673 171.123 133.428 170.923 133.131C170.728 132.83 170.606 132.483 170.556 132.09C170.507 131.693 170.533 131.113 170.633 130.349L170.936 128.044C171.045 127.209 171.221 126.568 171.464 126.121C171.706 125.675 172.081 125.341 172.588 125.118C173.096 124.895 173.715 124.831 174.447 124.927C175.062 125.008 175.576 125.17 175.99 125.413C176.409 125.651 176.719 125.933 176.92 126.259C177.121 126.584 177.244 126.908 177.289 127.231C177.338 127.555 177.321 128.035 177.238 128.672ZM174.588 127.635C174.649 127.174 174.662 126.881 174.628 126.757C174.594 126.629 174.496 126.554 174.333 126.533C174.171 126.511 174.054 126.558 173.984 126.673C173.914 126.783 173.849 127.069 173.789 127.53L173.256 131.59C173.2 132.014 173.19 132.296 173.227 132.434C173.265 132.568 173.363 132.645 173.521 132.666C173.684 132.687 173.798 132.642 173.863 132.531C173.932 132.421 173.993 132.171 174.044 131.783L174.588 127.635ZM181.299 125.992L181.035 127.157C181.544 126.365 182.179 125.993 182.94 126.042L182.524 129.208C182.023 129.142 181.646 129.161 181.393 129.266C181.14 129.371 180.971 129.541 180.884 129.778C180.799 130.011 180.699 130.563 180.584 131.435L180.118 134.986L177.38 134.627L178.56 125.633L181.299 125.992ZM186.615 124.677L185.174 135.65L182.354 135.28L183.795 124.307L186.615 124.677ZM193.833 125.625L192.392 136.598L189.654 136.239L189.74 135.588C189.442 135.825 189.14 135.992 188.833 136.089C188.526 136.187 188.214 136.215 187.898 136.173C187.473 136.118 187.119 135.959 186.836 135.696C186.554 135.429 186.387 135.143 186.336 134.838C186.288 134.533 186.308 134.048 186.395 133.384L186.948 129.175C187.039 128.483 187.146 127.999 187.27 127.721C187.398 127.444 187.635 127.217 187.98 127.042C188.325 126.862 188.717 126.801 189.155 126.858C189.494 126.903 189.796 127.005 190.06 127.163C190.328 127.323 190.562 127.539 190.76 127.814L191.095 125.265L193.833 125.625ZM190.538 129.508C190.581 129.178 190.581 128.953 190.537 128.832C190.498 128.712 190.394 128.641 190.227 128.619C190.064 128.598 189.947 128.635 189.874 128.732C189.807 128.824 189.75 129.046 189.704 129.399L189.126 133.804C189.078 134.17 189.073 134.416 189.112 134.54C189.151 134.66 189.248 134.73 189.401 134.751C189.578 134.774 189.703 134.726 189.779 134.607C189.855 134.484 189.926 134.171 189.991 133.67L190.538 129.508ZM197.351 126.087L202.109 126.711L201.82 128.907L199.916 128.657L199.643 130.738L201.425 130.972L201.151 133.06L199.369 132.826L199.052 135.239L201.146 135.514L200.858 137.71L195.91 137.06L197.351 126.087ZM208.907 127.604L207.273 132.326L207.974 138.644L205.331 138.297C205.158 137.162 205.044 135.793 204.988 134.191C204.825 134.873 204.629 135.594 204.4 136.354L203.894 138.108L201.115 137.743L202.949 131.758L202.556 126.77L205.315 127.132C205.325 127.442 205.358 127.958 205.414 128.683C205.461 129.236 205.494 129.741 205.512 130.199L206.514 127.29L208.907 127.604ZM209.822 127.724L212.696 128.101C213.473 128.203 214.061 128.343 214.461 128.519C214.865 128.697 215.156 128.914 215.334 129.172C215.516 129.43 215.621 129.729 215.65 130.068C215.684 130.404 215.656 130.915 215.566 131.602L215.441 132.557C215.349 133.258 215.209 133.759 215.023 134.061C214.836 134.362 214.537 134.574 214.126 134.694C213.719 134.816 213.204 134.835 212.581 134.753L211.815 134.653L211.235 139.072L208.381 138.697L209.822 127.724ZM212.429 129.976L212.062 132.769C212.143 132.784 212.213 132.795 212.271 132.803C212.533 132.837 212.722 132.798 212.839 132.684C212.96 132.567 213.047 132.305 213.1 131.898L213.219 130.997C213.268 130.622 213.241 130.37 213.139 130.242C213.036 130.113 212.799 130.025 212.429 129.976ZM222.466 135.92C222.321 137.023 222.191 137.801 222.077 138.255C221.967 138.705 221.75 139.101 221.424 139.445C221.103 139.789 220.697 140.032 220.205 140.174C219.712 140.316 219.157 140.347 218.538 140.265C217.95 140.188 217.434 140.024 216.989 139.772C216.549 139.517 216.212 139.179 215.978 138.757C215.744 138.336 215.629 137.895 215.634 137.436C215.639 136.977 215.716 136.183 215.864 135.054L216.111 133.176C216.256 132.074 216.383 131.297 216.493 130.848C216.607 130.394 216.825 129.995 217.146 129.651C217.471 129.308 217.88 129.065 218.372 128.923C218.864 128.78 219.42 128.75 220.039 128.831C220.626 128.908 221.14 129.075 221.58 129.33C222.025 129.581 222.365 129.918 222.599 130.339C222.833 130.761 222.948 131.201 222.943 131.66C222.938 132.119 222.861 132.913 222.712 134.043L222.466 135.92ZM220.086 131.94C220.153 131.429 220.166 131.1 220.126 130.952C220.091 130.801 219.985 130.713 219.809 130.69C219.66 130.67 219.537 130.714 219.44 130.821C219.348 130.924 219.265 131.258 219.191 131.822L218.519 136.946C218.435 137.584 218.408 137.98 218.438 138.136C218.473 138.292 218.585 138.382 218.775 138.407C218.969 138.433 219.105 138.363 219.181 138.199C219.258 138.034 219.339 137.629 219.424 136.983L220.086 131.94Z" fill="#446CFF"/>
<defs>
<filter id="filter0_f" x="0" y="35" width="342" height="256" filterUnits="userSpaceOnUse" color-interpolation-filters="sRGB">
<feFlood flood-opacity="0" result="BackgroundImageFix"/>
<feBlend mode="normal" in="SourceGraphic" in2="BackgroundImageFix" result="shape"/>
<feGaussianBlur stdDeviation="22" result="effect1_foregroundBlur"/>
</filter>
<filter id="filter1_ii" x="95.4375" y="2.41254" width="228.976" height="167.131" filterUnits="userSpaceOnUse" color-interpolation-filters="sRGB">
<feFlood flood-opacity="0" result="BackgroundImageFix"/>
<feBlend mode="normal" in="SourceGraphic" in2="BackgroundImageFix" result="shape"/>
<feColorMatrix in="SourceAlpha" type="matrix" values="0 0 0 0 0 0 0 0 0 0 0 0 0 0 0 0 0 0 127 0" result="hardAlpha"/>
<feOffset dy="4"/>
<feGaussianBlur stdDeviation="1.5"/>
<feComposite in2="hardAlpha" operator="arithmetic" k2="-1" k3="1"/>
<feColorMatrix type="matrix" values="0 0 0 0 0 0 0 0 0 0 0 0 0 0 0 0 0 0 0.25 0"/>
<feBlend mode="normal" in2="shape" result="effect1_innerShadow"/>
<feColorMatrix in="SourceAlpha" type="matrix" values="0 0 0 0 0 0 0 0 0 0 0 0 0 0 0 0 0 0 127 0" result="hardAlpha"/>
<feOffset dy="-2"/>
<feGaussianBlur stdDeviation="1"/>
<feComposite in2="hardAlpha" operator="arithmetic" k2="-1" k3="1"/>
<feColorMatrix type="matrix" values="0 0 0 0 0 0 0 0 0 0 0 0 0 0 0 0 0 0 0.25 0"/>
<feBlend mode="normal" in2="effect1_innerShadow" result="effect2_innerShadow"/>
</filter>
<filter id="filter2_f" x="152" y="105.5" width="88" height="46" filterUnits="userSpaceOnUse" color-interpolation-filters="sRGB">
<feFlood flood-opacity="0" result="BackgroundImageFix"/>
<feBlend mode="normal" in="SourceGraphic" in2="BackgroundImageFix" result="shape"/>
<feGaussianBlur stdDeviation="2" result="effect1_foregroundBlur"/>
</filter>
<filter id="filter3_d" x="152.5" y="114.667" width="74.0005" height="32.0315" filterUnits="userSpaceOnUse" color-interpolation-filters="sRGB">
<feFlood flood-opacity="0" result="BackgroundImageFix"/>
<feColorMatrix in="SourceAlpha" type="matrix" values="0 0 0 0 0 0 0 0 0 0 0 0 0 0 0 0 0 0 127 0"/>
<feOffset/>
<feGaussianBlur stdDeviation="1"/>
<feColorMatrix type="matrix" values="0 0 0 0 0 0 0 0 0 0 0 0 0 0 0 0 0 0 0.65 0"/>
<feBlend mode="normal" in2="BackgroundImageFix" result="effect1_dropShadow"/>
<feBlend mode="normal" in="SourceGraphic" in2="effect1_dropShadow" result="shape"/>
</filter>
<linearGradient id="paint0_linear" x1="278.763" y1="0.246038" x2="176.413" y2="169.985" gradientUnits="userSpaceOnUse">
<stop stop-color="#939393"/>
<stop offset="0.213542" stop-color="#EEEEEE"/>
<stop offset="0.515625" stop-color="#8A8A8A"/>
<stop offset="0.807292" stop-color="#DCDCDC"/>
<stop offset="1" stop-color="#939393"/>
</linearGradient>
<linearGradient id="paint1_linear" x1="280.841" y1="43.5413" x2="201.73" y2="199.911" gradientUnits="userSpaceOnUse">
<stop stop-color="#939393"/>
<stop offset="0.213542" stop-color="#EEEEEE"/>
<stop offset="0.515625" stop-color="#8A8A8A"/>
<stop offset="0.807292" stop-color="#DCDCDC"/>
<stop offset="1" stop-color="#939393"/>
</linearGradient>
<linearGradient id="paint2_linear" x1="193" y1="115" x2="186.5" y2="138" gradientUnits="userSpaceOnUse">
<stop stop-opacity="0"/>
<stop offset="1"/>
</linearGradient>
<linearGradient id="paint3_linear" x1="191.5" y1="118.5" x2="184.5" y2="154" gradientUnits="userSpaceOnUse">
<stop stop-color="#224ADA"/>
<stop offset="1" stop-color="#A9B2D3"/>
</linearGradient>
<linearGradient id="paint4_linear" x1="187" y1="115" x2="187" y2="137" gradientUnits="userSpaceOnUse">
<stop stop-color="white"/>
<stop offset="1" stop-color="#D1DEE9"/>
</linearGradient>
</defs>
</svg>
