<svg width="344" height="254" viewBox="0 0 344 254" fill="none" xmlns="http://www.w3.org/2000/svg">
<g opacity="0.6" filter="url(#filter0_f)">
<path d="M44 121.335L95.443 84L192.051 122.064L160.253 121.335L300 225.145L132.709 247L85.3165 121.335H44Z" fill="#2442B1"/>
</g>
<path d="M6.71729 43.5413L61.6063 0.246033L161.602 46.4397H133.524L262.866 151.689L88.0545 177.231L47.2953 44.2659L6.71729 43.5413Z" fill="url(#paint0_linear)"/>
<g filter="url(#filter1_ii)">
<path d="M17.5864 41.5487L63.599 4.41254L150.008 42.2733L121.568 41.5487L246.562 144.805L96.9309 166.543L54.5414 41.5487H17.5864Z" fill="#446CFF"/>
</g>
<path d="M4 56.5843L6.89843 43.5413H47.2953L87.8733 177.413L263.047 151.689L254.895 164.551L81.3518 193.716L43.1288 56.5843H4Z" fill="#7B7B7B"/>
<path d="M4 56.5843L6.89843 43.5413H47.2953L87.8733 177.413L263.047 151.689L254.895 164.551L81.3518 193.716L43.1288 56.5843H4Z" fill="url(#paint1_linear)"/>
<path d="M157.254 57.6712L162.327 46.4398H133.523L146.929 57.6712H157.254Z" fill="#C4C4C4"/>
<g opacity="0.5" filter="url(#filter2_f)">
<path d="M115.5 144.5L102 124.5L166 108L185.5 130L115.5 144.5Z" fill="url(#paint2_linear)"/>
</g>
<path d="M114.035 121.309C114.015 120.282 114.776 119.407 115.796 119.284L179.141 111.664C179.96 111.565 180.756 111.98 181.144 112.708L191.155 131.478C191.808 132.703 191.045 134.205 189.669 134.399L116.735 144.685C115.547 144.852 114.479 143.943 114.456 142.744L114.035 121.309Z" fill="url(#paint3_linear)"/>
<g filter="url(#filter3_d)">
<path d="M117 122.287C117 121.269 117.764 120.414 118.776 120.3L177.562 113.662C178.42 113.565 179.244 114.03 179.604 114.815L186.355 129.508C186.921 130.74 186.123 132.166 184.777 132.328L119.239 140.23C118.049 140.374 117 139.444 117 138.244V122.287Z" fill="url(#paint4_linear)"/>
</g>
<path d="M129.242 123.258L129.221 134.399L125.649 134.805C125.131 133.153 124.625 131.266 124.132 129.143C124.123 130.076 124.076 132.026 123.991 134.994L120.439 135.397L117.913 124.546L120.691 124.23L121.419 128.034L122.138 131.702C122.025 129.775 122.002 127.232 122.07 124.073L125.045 123.735C125.122 124.052 125.363 125.249 125.769 127.327L126.556 131.469C126.413 128.793 126.382 126.161 126.464 123.574L129.242 123.258ZM136.524 127.646L136.775 129.853C136.867 130.664 136.894 131.264 136.856 131.654C136.817 132.039 136.683 132.412 136.453 132.773C136.223 133.129 135.906 133.41 135.503 133.617C135.104 133.818 134.633 133.95 134.09 134.011C133.483 134.08 132.961 134.073 132.525 133.99C132.089 133.902 131.738 133.737 131.472 133.497C131.21 133.251 131.008 132.944 130.865 132.575C130.722 132.202 130.606 131.632 130.519 130.867L130.257 128.558C130.162 127.72 130.178 127.055 130.306 126.564C130.433 126.072 130.716 125.657 131.155 125.318C131.593 124.98 132.18 124.768 132.913 124.685C133.529 124.615 134.067 124.648 134.527 124.784C134.992 124.915 135.361 125.113 135.634 125.38C135.907 125.648 136.105 125.932 136.226 126.235C136.352 126.537 136.452 127.008 136.524 127.646ZM133.703 127.279C133.651 126.817 133.593 126.53 133.53 126.418C133.466 126.301 133.353 126.252 133.19 126.271C133.026 126.289 132.925 126.363 132.884 126.491C132.843 126.615 132.849 126.908 132.902 127.37L133.364 131.438C133.412 131.864 133.471 132.139 133.54 132.264C133.609 132.385 133.723 132.436 133.881 132.418C134.044 132.4 134.144 132.329 134.18 132.205C134.221 132.081 134.22 131.825 134.175 131.435L133.703 127.279ZM139.819 124.066L139.845 125.26C140.147 124.368 140.673 123.854 141.424 123.718L141.784 126.89C141.281 126.947 140.92 127.057 140.7 127.22C140.48 127.382 140.357 127.589 140.33 127.84C140.303 128.086 140.339 128.646 140.439 129.52L140.843 133.079L138.099 133.391L137.075 124.377L139.819 124.066ZM144.661 121.507L145.91 132.503L143.084 132.824L141.835 121.828L144.661 121.507ZM151.894 120.685L153.144 131.681L150.4 131.993L150.326 131.341C150.094 131.643 149.841 131.878 149.566 132.047C149.292 132.215 148.996 132.318 148.679 132.354C148.254 132.402 147.872 132.333 147.534 132.147C147.196 131.956 146.965 131.718 146.841 131.434C146.722 131.15 146.624 130.675 146.548 130.009L146.069 125.791C145.991 125.098 145.978 124.602 146.031 124.302C146.089 124.002 146.263 123.726 146.556 123.472C146.847 123.214 147.213 123.06 147.652 123.011C147.992 122.972 148.309 122.998 148.604 123.088C148.903 123.178 149.182 123.332 149.44 123.55L149.15 120.997L151.894 120.685ZM149.633 125.248C149.596 124.918 149.541 124.699 149.469 124.593C149.402 124.486 149.285 124.442 149.117 124.461C148.954 124.479 148.849 124.544 148.802 124.655C148.759 124.761 148.758 124.99 148.798 125.343L149.3 129.758C149.341 130.125 149.396 130.364 149.464 130.476C149.531 130.583 149.641 130.628 149.795 130.61C149.972 130.59 150.082 130.513 150.127 130.38C150.171 130.242 150.164 129.922 150.107 129.419L149.633 125.248ZM155.419 120.284L160.188 119.743L160.438 121.943L158.529 122.16L158.766 124.245L160.552 124.042L160.79 126.134L159.004 126.337L159.278 128.755L161.377 128.517L161.627 130.718L156.669 131.281L155.419 120.284ZM167 118.969L166.554 123.945L168.759 129.907L166.11 130.208C165.669 129.148 165.227 127.848 164.786 126.306C164.792 127.007 164.776 127.755 164.738 128.548L164.67 130.372L161.885 130.688L162.221 124.438L160.636 119.692L163.4 119.378C163.485 119.675 163.642 120.169 163.871 120.858C164.05 121.384 164.204 121.866 164.332 122.306L164.603 119.241L167 118.969ZM167.917 118.864L170.797 118.537C171.576 118.449 172.181 118.442 172.611 118.517C173.046 118.591 173.381 118.732 173.615 118.939C173.854 119.146 174.029 119.411 174.139 119.733C174.253 120.05 174.349 120.553 174.427 121.241L174.536 122.199C174.616 122.901 174.602 123.421 174.493 123.759C174.385 124.097 174.146 124.374 173.776 124.59C173.411 124.806 172.915 124.949 172.291 125.02L171.523 125.108L172.026 129.536L169.167 129.861L167.917 118.864ZM170.991 120.421L171.308 123.219C171.39 123.215 171.461 123.209 171.52 123.202C171.782 123.172 171.956 123.088 172.042 122.95C172.131 122.807 172.152 122.532 172.106 122.124L172.003 121.221C171.961 120.845 171.874 120.607 171.743 120.507C171.613 120.408 171.362 120.379 170.991 120.421ZM182.165 123.768C182.291 124.873 182.353 125.659 182.351 126.127C182.353 126.59 182.238 127.027 182.005 127.439C181.776 127.85 181.44 128.184 180.997 128.441C180.554 128.698 180.022 128.862 179.402 128.932C178.813 128.999 178.272 128.964 177.78 128.827C177.291 128.686 176.882 128.439 176.553 128.086C176.224 127.734 176.007 127.334 175.901 126.887C175.796 126.441 175.678 125.651 175.55 124.519L175.336 122.638C175.21 121.533 175.147 120.749 175.144 120.286C175.146 119.818 175.261 119.378 175.49 118.967C175.723 118.555 176.061 118.221 176.504 117.964C176.948 117.708 177.479 117.544 178.1 117.474C178.688 117.407 179.227 117.444 179.715 117.586C180.208 117.722 180.619 117.967 180.948 118.32C181.277 118.672 181.494 119.072 181.6 119.518C181.706 119.965 181.823 120.754 181.952 121.886L182.165 123.768ZM178.895 120.479C178.837 119.967 178.771 119.645 178.696 119.511C178.625 119.372 178.501 119.313 178.325 119.333C178.175 119.35 178.067 119.422 177.998 119.549C177.934 119.671 177.934 120.015 177.999 120.581L178.582 125.716C178.655 126.354 178.724 126.745 178.791 126.889C178.862 127.033 178.993 127.093 179.183 127.072C179.378 127.05 179.493 126.949 179.528 126.771C179.562 126.593 179.543 126.18 179.469 125.533L178.895 120.479Z" fill="#446CFF"/>
<defs>
<filter id="filter0_f" x="0" y="40" width="344" height="251" filterUnits="userSpaceOnUse" color-interpolation-filters="sRGB">
<feFlood flood-opacity="0" result="BackgroundImageFix"/>
<feBlend mode="normal" in="SourceGraphic" in2="BackgroundImageFix" result="shape"/>
<feGaussianBlur stdDeviation="22" result="effect1_foregroundBlur"/>
</filter>
<filter id="filter1_ii" x="17.5864" y="2.41254" width="228.976" height="167.131" filterUnits="userSpaceOnUse" color-interpolation-filters="sRGB">
<feFlood flood-opacity="0" result="BackgroundImageFix"/>
<feBlend mode="normal" in="SourceGraphic" in2="BackgroundImageFix" result="shape"/>
<feColorMatrix in="SourceAlpha" type="matrix" values="0 0 0 0 0 0 0 0 0 0 0 0 0 0 0 0 0 0 127 0" result="hardAlpha"/>
<feOffset dy="4"/>
<feGaussianBlur stdDeviation="1.5"/>
<feComposite in2="hardAlpha" operator="arithmetic" k2="-1" k3="1"/>
<feColorMatrix type="matrix" values="0 0 0 0 0 0 0 0 0 0 0 0 0 0 0 0 0 0 0.25 0"/>
<feBlend mode="normal" in2="shape" result="effect1_innerShadow"/>
<feColorMatrix in="SourceAlpha" type="matrix" values="0 0 0 0 0 0 0 0 0 0 0 0 0 0 0 0 0 0 127 0" result="hardAlpha"/>
<feOffset dy="-2"/>
<feGaussianBlur stdDeviation="1"/>
<feComposite in2="hardAlpha" operator="arithmetic" k2="-1" k3="1"/>
<feColorMatrix type="matrix" values="0 0 0 0 0 0 0 0 0 0 0 0 0 0 0 0 0 0 0.25 0"/>
<feBlend mode="normal" in2="effect1_innerShadow" result="effect2_innerShadow"/>
</filter>
<filter id="filter2_f" x="98" y="104" width="91.5" height="44.5" filterUnits="userSpaceOnUse" color-interpolation-filters="sRGB">
<feFlood flood-opacity="0" result="BackgroundImageFix"/>
<feBlend mode="normal" in="SourceGraphic" in2="BackgroundImageFix" result="shape"/>
<feGaussianBlur stdDeviation="2" result="effect1_foregroundBlur"/>
</filter>
<filter id="filter3_d" x="115" y="111.65" width="73.5391" height="30.595" filterUnits="userSpaceOnUse" color-interpolation-filters="sRGB">
<feFlood flood-opacity="0" result="BackgroundImageFix"/>
<feColorMatrix in="SourceAlpha" type="matrix" values="0 0 0 0 0 0 0 0 0 0 0 0 0 0 0 0 0 0 127 0"/>
<feOffset/>
<feGaussianBlur stdDeviation="1"/>
<feColorMatrix type="matrix" values="0 0 0 0 0 0 0 0 0 0 0 0 0 0 0 0 0 0 0.65 0"/>
<feBlend mode="normal" in2="BackgroundImageFix" result="effect1_dropShadow"/>
<feBlend mode="normal" in="SourceGraphic" in2="effect1_dropShadow" result="shape"/>
</filter>
<linearGradient id="paint0_linear" x1="63.2366" y1="0.246038" x2="165.587" y2="169.985" gradientUnits="userSpaceOnUse">
<stop stop-color="#939393"/>
<stop offset="0.213542" stop-color="#EEEEEE"/>
<stop offset="0.515625" stop-color="#8A8A8A"/>
<stop offset="0.807292" stop-color="#DCDCDC"/>
<stop offset="1" stop-color="#939393"/>
</linearGradient>
<linearGradient id="paint1_linear" x1="61.1589" y1="43.5413" x2="140.27" y2="199.911" gradientUnits="userSpaceOnUse">
<stop stop-color="#939393"/>
<stop offset="0.213542" stop-color="#EEEEEE"/>
<stop offset="0.515625" stop-color="#8A8A8A"/>
<stop offset="0.807292" stop-color="#DCDCDC"/>
<stop offset="1" stop-color="#939393"/>
</linearGradient>
<linearGradient id="paint2_linear" x1="148.5" y1="112" x2="155" y2="135" gradientUnits="userSpaceOnUse">
<stop stop-opacity="0"/>
<stop offset="1"/>
</linearGradient>
<linearGradient id="paint3_linear" x1="148.5" y1="115" x2="155" y2="145" gradientUnits="userSpaceOnUse">
<stop stop-color="#224ADA"/>
<stop offset="1" stop-color="#A9B2D3"/>
</linearGradient>
<linearGradient id="paint4_linear" x1="154.5" y1="112" x2="154.5" y2="134" gradientUnits="userSpaceOnUse">
<stop stop-color="white"/>
<stop offset="1" stop-color="#D1DEE9"/>
</linearGradient>
</defs>
</svg>
