<svg width="20" height="20" viewBox="0 0 20 20" fill="none" xmlns="http://www.w3.org/2000/svg">
<path d="M18.9655 20H3.7931C3.51874 20 3.25562 19.891 3.06161 19.697C2.86761 19.503 2.75862 19.2399 2.75862 18.9655V14.8276C2.75862 14.5532 2.86761 14.2901 3.06161 14.0961C3.25562 13.9021 3.51874 13.7931 3.7931 13.7931C4.06747 13.7931 4.33059 13.9021 4.52459 14.0961C4.7186 14.2901 4.82759 14.5532 4.82759 14.8276V17.931H17.931V2.06897H4.82759V5.17241C4.82759 5.44678 4.7186 5.7099 4.52459 5.9039C4.33059 6.09791 4.06747 6.2069 3.7931 6.2069C3.51874 6.2069 3.25562 6.09791 3.06161 5.9039C2.86761 5.7099 2.75862 5.44678 2.75862 5.17241V1.03448C2.75862 0.760121 2.86761 0.496996 3.06161 0.302993C3.25562 0.10899 3.51874 0 3.7931 0H18.9655C19.2399 0 19.503 0.10899 19.697 0.302993C19.891 0.496996 20 0.760121 20 1.03448V18.9655C20 19.2399 19.891 19.503 19.697 19.697C19.503 19.891 19.2399 20 18.9655 20ZM11.2644 10L9.88504 8.96552H1.03448C0.760121 8.96552 0.496996 9.07451 0.302993 9.26851C0.10899 9.46251 0 9.72564 0 10C0 10.2744 0.10899 10.5375 0.302993 10.7315C0.496996 10.9255 0.760121 11.0345 1.03448 11.0345H9.88504L11.2644 10ZM9.24138 14.9655L14.7586 10.8276C14.8871 10.7312 14.9914 10.6063 15.0632 10.4626C15.135 10.319 15.1724 10.1606 15.1724 10C15.1724 9.8394 15.135 9.68101 15.0632 9.53737C14.9914 9.39372 14.8871 9.26877 14.7586 9.17241L9.24138 5.03448C9.02189 4.86987 8.746 4.79918 8.47439 4.83798C8.20279 4.87678 7.95772 5.02189 7.7931 5.24138C7.62849 5.46087 7.5578 5.73676 7.5966 6.00837C7.6354 6.27997 7.78051 6.52504 8 6.68966L12.4138 10L8 13.3103C7.89132 13.3919 7.79976 13.494 7.73054 13.6109C7.66133 13.7278 7.61582 13.8571 7.5966 13.9916C7.57739 14.1261 7.58486 14.2631 7.61857 14.3947C7.65229 14.5263 7.71159 14.6499 7.7931 14.7586C7.87461 14.8673 7.97673 14.9589 8.09363 15.0281C8.21052 15.0973 8.33991 15.1428 8.47439 15.162C8.60888 15.1812 8.74583 15.1738 8.87743 15.14C9.00903 15.1063 9.1327 15.047 9.24138 14.9655Z" fill="white"/>
</svg>
