<svg width="39" height="38" viewBox="0 0 39 38" fill="none" xmlns="http://www.w3.org/2000/svg">
<path d="M24.6464 6.05082C30.7071 8.84858 37.769 15.3435 35.0049 21.3311C32.2409 27.3188 19.1684 33.8447 13.1077 31.0469C7.04699 28.2491 5.02113 14.119 7.78518 8.13127C10.5492 2.14358 18.5857 3.25306 24.6464 6.05082Z" fill="white"/>
<path d="M23.1043 9.88201C27.349 11.8414 32.2947 16.3901 30.3589 20.5836C28.4231 24.7771 19.2678 29.3475 15.0231 27.3881C10.7785 25.4287 9.35966 15.5326 11.2955 11.3391C13.2313 7.14556 18.8597 7.92259 23.1043 9.88201Z" fill="white"/>
<path d="M23.1043 9.88201C27.349 11.8414 32.2947 16.3901 30.3589 20.5836C28.4231 24.7771 19.2678 29.3475 15.0231 27.3881C10.7785 25.4287 9.35966 15.5326 11.2955 11.3391C13.2313 7.14556 18.8597 7.92259 23.1043 9.88201Z" fill="url(#paint0_linear)"/>
<path d="M16.8784 14.9011L18.0109 13.8195L22.8134 18.4057L18.0109 22.9919L16.8784 21.9103L20.5483 18.4057L16.8784 14.9011Z" fill="white"/>
<defs>
<linearGradient id="paint0_linear" x1="6.47994" y1="12.7975" x2="15.1909" y2="34.6421" gradientUnits="userSpaceOnUse">
<stop stop-color="#518CFF"/>
<stop offset="1" stop-color="#E961FF"/>
</linearGradient>
</defs>
</svg>
