<svg width="123" height="118" viewBox="0 0 123 118" fill="none" xmlns="http://www.w3.org/2000/svg">
<path d="M44.9588 18.9526C25.9753 27.7158 3.85594 48.0592 12.5136 66.8141C21.1712 85.5689 62.1173 106.009 81.1009 97.2461C100.084 88.4829 106.43 44.2239 97.7722 25.469C89.1146 6.71418 63.9424 10.1893 44.9588 18.9526Z" fill="white"/>
<path d="M49.7893 30.9528C36.4941 37.0901 21.0028 51.3377 27.0662 64.4728C33.1296 77.6078 61.8063 91.9233 75.1015 85.7859C88.3967 79.6486 92.8408 48.6516 86.7774 35.5166C80.7139 22.3816 63.0845 24.8154 49.7893 30.9528Z" fill="white"/>
<path d="M49.7893 30.9528C36.4941 37.0901 21.0028 51.3377 27.0662 64.4728C33.1296 77.6078 61.8063 91.9233 75.1015 85.7859C88.3967 79.6486 92.8408 48.6516 86.7774 35.5166C80.7139 22.3816 63.0845 24.8154 49.7893 30.9528Z" fill="url(#paint0_linear)"/>
<path d="M69.2902 46.6737L65.7428 43.2859L50.7002 57.6509L65.7428 72.0159L69.2902 68.6282L57.7952 57.6509L69.2902 46.6737Z" fill="white"/>
<defs>
<linearGradient id="paint0_linear" x1="101.861" y1="40.0847" x2="74.5759" y2="108.507" gradientUnits="userSpaceOnUse">
<stop stop-color="#446CFF"/>
<stop offset="1" stop-color="#44E9FF"/>
</linearGradient>
</defs>
</svg>
