<svg width="22" height="22" viewBox="0 0 22 22" fill="none" xmlns="http://www.w3.org/2000/svg">
<path d="M9.02094 0C13.9951 0 18.0419 4.0468 18.0419 9.02095C18.0419 11.1993 17.2657 13.1998 15.9754 14.7605L22 20.785L20.785 22L14.7605 15.9754C13.1998 17.2657 11.1993 18.0419 9.02094 18.0419C4.0468 18.0419 0 13.9951 0 9.02095C0 4.0468 4.04675 0 9.02094 0ZM9.02094 16.3236C13.0476 16.3236 16.3236 13.0476 16.3236 9.02095C16.3236 4.99426 13.0476 1.71828 9.02094 1.71828C4.99426 1.71828 1.71828 4.99426 1.71828 9.02095C1.71828 13.0476 4.99426 16.3236 9.02094 16.3236Z" fill="#4C5885"/>
</svg>
