<svg width="277" height="261" viewBox="0 0 277 261" fill="none" xmlns="http://www.w3.org/2000/svg">
<g opacity="0.6" filter="url(#filter0_f)">
<path d="M44 117.038L129.981 67L233 117.038H183.981L214.388 232H67.068L101.67 117.038H44Z" fill="#2442B1"/>
</g>
<path d="M65.9956 51.266L135.377 0L218.707 51.266H183.02L207.475 155.247H80.6689L106.755 51.266H65.9956Z" fill="url(#paint0_linear)"/>
<g filter="url(#filter1_ii)">
<path d="M76.3213 47.2806L135.739 3.44188L206.932 47.2806H173.056L194.07 148.001H92.2627L116.175 47.2806H76.3213Z" fill="#446CFF"/>
</g>
<path d="M63.8218 63.5843L66.7202 50.5414H107.298L81.5747 154.704H205.301L182.476 50.5414H217.801L225.772 63.5843L190.628 55.4325L217.801 171.551H72.3359L101.32 63.5843H63.8218Z" fill="#7B7B7B"/>
<path d="M63.8218 63.5843L66.7202 50.5414H107.298L81.5747 154.704H205.301L182.476 50.5414H217.801L225.772 63.5843L190.628 55.4325L217.801 171.551H72.3359L101.32 63.5843H63.8218Z" fill="url(#paint1_linear)"/>
<g opacity="0.8" filter="url(#filter2_f)">
<path d="M106.024 141L102 126H185L180.473 141H106.024Z" fill="url(#paint2_linear)"/>
</g>
<path d="M110.1 119.477C110.336 118.605 111.127 118 112.03 118H173.667C174.474 118 175.202 118.485 175.513 119.231L183.846 139.231C184.395 140.548 183.427 142 182 142H106.614C105.296 142 104.339 140.749 104.683 139.477L110.1 119.477Z" fill="url(#paint3_linear)"/>
<g filter="url(#filter3_d)">
<path d="M112.59 121.424C112.844 120.579 113.623 120 114.505 120H171.463C172.242 120 172.95 120.453 173.278 121.16L180.685 137.16C181.299 138.485 180.331 140 178.87 140H109.69C108.35 140 107.389 138.707 107.775 137.424L112.59 121.424Z" fill="url(#paint4_linear)"/>
</g>
<path d="M125.671 125.723L124.484 136H121.146C120.841 134.422 120.572 132.627 120.339 130.617C120.234 131.476 119.986 133.271 119.597 136H116.277L115.083 125.723H117.68L117.953 129.31L118.232 132.769C118.329 130.979 118.575 128.63 118.968 125.723H121.749C121.787 126.024 121.884 127.153 122.041 129.113L122.333 133.017C122.481 130.533 122.728 128.101 123.075 125.723H125.671ZM131.93 130.535V132.598C131.93 133.355 131.892 133.912 131.816 134.267C131.74 134.618 131.577 134.948 131.327 135.257C131.077 135.562 130.756 135.788 130.362 135.937C129.973 136.08 129.524 136.152 129.017 136.152C128.45 136.152 127.969 136.091 127.576 135.968C127.182 135.841 126.875 135.653 126.655 135.403C126.439 135.149 126.285 134.845 126.192 134.489C126.099 134.13 126.052 133.592 126.052 132.877V130.719C126.052 129.936 126.137 129.324 126.306 128.884C126.475 128.444 126.78 128.091 127.22 127.824C127.66 127.558 128.223 127.424 128.909 127.424C129.484 127.424 129.977 127.511 130.388 127.685C130.802 127.854 131.122 128.076 131.346 128.351C131.57 128.626 131.723 128.91 131.803 129.202C131.888 129.494 131.93 129.938 131.93 130.535ZM129.366 129.9C129.366 129.468 129.342 129.197 129.296 129.087C129.249 128.973 129.15 128.916 128.998 128.916C128.845 128.916 128.744 128.973 128.693 129.087C128.642 129.197 128.617 129.468 128.617 129.9V133.702C128.617 134.1 128.642 134.36 128.693 134.483C128.744 134.601 128.843 134.661 128.991 134.661C129.144 134.661 129.243 134.606 129.29 134.496C129.34 134.386 129.366 134.149 129.366 133.785V129.9ZM135.345 127.577L135.244 128.681C135.616 127.89 136.156 127.471 136.862 127.424V130.389C136.393 130.389 136.048 130.452 135.828 130.579C135.608 130.706 135.472 130.884 135.421 131.112C135.371 131.337 135.345 131.857 135.345 132.674V136H132.781V127.577H135.345ZM140.081 125.723V136H137.44V125.723H140.081ZM146.841 125.723V136H144.276V135.391C144.031 135.645 143.773 135.835 143.502 135.962C143.231 136.089 142.948 136.152 142.651 136.152C142.254 136.152 141.909 136.049 141.617 135.841C141.325 135.63 141.136 135.386 141.052 135.111C140.971 134.836 140.931 134.388 140.931 133.766V129.824C140.931 129.176 140.971 128.717 141.052 128.446C141.136 128.175 141.327 127.938 141.623 127.735C141.919 127.528 142.273 127.424 142.683 127.424C143 127.424 143.29 127.481 143.553 127.596C143.819 127.71 144.061 127.881 144.276 128.11V125.723H146.841ZM144.276 129.697C144.276 129.388 144.249 129.181 144.194 129.075C144.143 128.969 144.039 128.916 143.883 128.916C143.73 128.916 143.627 128.965 143.572 129.062C143.521 129.155 143.496 129.367 143.496 129.697V133.823C143.496 134.166 143.521 134.392 143.572 134.502C143.623 134.608 143.72 134.661 143.864 134.661C144.029 134.661 144.139 134.601 144.194 134.483C144.249 134.36 144.276 134.064 144.276 133.594V129.697ZM150.135 125.723H154.591V127.78H152.808V129.729H154.477V131.684H152.808V133.943H154.769V136H150.135V125.723ZM160.958 125.723L160.025 130.268L161.434 136H158.958C158.662 134.976 158.391 133.73 158.146 132.261C158.078 132.909 157.985 133.596 157.867 134.324L157.613 136H155.01L155.975 130.268L155.01 125.723H157.594C157.64 126.007 157.733 126.479 157.873 127.139C157.983 127.642 158.074 128.104 158.146 128.522L158.717 125.723H160.958ZM161.815 125.723H164.506C165.234 125.723 165.793 125.78 166.182 125.895C166.576 126.009 166.87 126.174 167.064 126.39C167.263 126.605 167.397 126.868 167.464 127.177C167.536 127.481 167.572 127.955 167.572 128.599V129.494C167.572 130.15 167.505 130.628 167.369 130.928C167.234 131.229 166.984 131.459 166.62 131.62C166.26 131.781 165.789 131.861 165.205 131.861H164.487V136H161.815V125.723ZM164.487 127.481V130.097C164.563 130.101 164.629 130.103 164.684 130.103C164.93 130.103 165.099 130.044 165.192 129.925C165.289 129.803 165.338 129.551 165.338 129.17V128.326C165.338 127.974 165.283 127.746 165.173 127.64C165.063 127.534 164.834 127.481 164.487 127.481ZM174.447 131.741C174.447 132.773 174.421 133.505 174.371 133.937C174.324 134.364 174.172 134.756 173.914 135.111C173.66 135.467 173.315 135.74 172.879 135.93C172.443 136.121 171.935 136.216 171.355 136.216C170.805 136.216 170.31 136.127 169.87 135.949C169.434 135.767 169.083 135.496 168.816 135.137C168.55 134.777 168.391 134.386 168.34 133.962C168.29 133.539 168.264 132.799 168.264 131.741V129.982C168.264 128.95 168.287 128.22 168.334 127.792C168.385 127.361 168.537 126.967 168.791 126.612C169.049 126.256 169.396 125.983 169.832 125.793C170.268 125.603 170.776 125.507 171.355 125.507C171.906 125.507 172.399 125.598 172.834 125.78C173.275 125.958 173.628 126.227 173.895 126.586C174.161 126.946 174.32 127.338 174.371 127.761C174.421 128.184 174.447 128.924 174.447 129.982V131.741ZM171.774 128.364C171.774 127.886 171.747 127.581 171.692 127.45C171.641 127.314 171.533 127.247 171.368 127.247C171.229 127.247 171.121 127.302 171.044 127.412C170.972 127.517 170.937 127.835 170.937 128.364V133.163C170.937 133.759 170.96 134.127 171.006 134.267C171.057 134.407 171.171 134.477 171.349 134.477C171.531 134.477 171.647 134.396 171.698 134.235C171.749 134.075 171.774 133.692 171.774 133.086V128.364Z" fill="#446CFF"/>
<defs>
<filter id="filter0_f" x="0" y="23" width="277" height="253" filterUnits="userSpaceOnUse" color-interpolation-filters="sRGB">
<feFlood flood-opacity="0" result="BackgroundImageFix"/>
<feBlend mode="normal" in="SourceGraphic" in2="BackgroundImageFix" result="shape"/>
<feGaussianBlur stdDeviation="22" result="effect1_foregroundBlur"/>
</filter>
<filter id="filter1_ii" x="76.3213" y="1.44188" width="130.61" height="149.559" filterUnits="userSpaceOnUse" color-interpolation-filters="sRGB">
<feFlood flood-opacity="0" result="BackgroundImageFix"/>
<feBlend mode="normal" in="SourceGraphic" in2="BackgroundImageFix" result="shape"/>
<feColorMatrix in="SourceAlpha" type="matrix" values="0 0 0 0 0 0 0 0 0 0 0 0 0 0 0 0 0 0 127 0" result="hardAlpha"/>
<feOffset dy="4"/>
<feGaussianBlur stdDeviation="1.5"/>
<feComposite in2="hardAlpha" operator="arithmetic" k2="-1" k3="1"/>
<feColorMatrix type="matrix" values="0 0 0 0 0 0 0 0 0 0 0 0 0 0 0 0 0 0 0.25 0"/>
<feBlend mode="normal" in2="shape" result="effect1_innerShadow"/>
<feColorMatrix in="SourceAlpha" type="matrix" values="0 0 0 0 0 0 0 0 0 0 0 0 0 0 0 0 0 0 127 0" result="hardAlpha"/>
<feOffset dy="-2"/>
<feGaussianBlur stdDeviation="1"/>
<feComposite in2="hardAlpha" operator="arithmetic" k2="-1" k3="1"/>
<feColorMatrix type="matrix" values="0 0 0 0 0 0 0 0 0 0 0 0 0 0 0 0 0 0 0.25 0"/>
<feBlend mode="normal" in2="effect1_innerShadow" result="effect2_innerShadow"/>
</filter>
<filter id="filter2_f" x="100" y="124" width="87" height="19" filterUnits="userSpaceOnUse" color-interpolation-filters="sRGB">
<feFlood flood-opacity="0" result="BackgroundImageFix"/>
<feBlend mode="normal" in="SourceGraphic" in2="BackgroundImageFix" result="shape"/>
<feGaussianBlur stdDeviation="1" result="effect1_foregroundBlur"/>
</filter>
<filter id="filter3_d" x="105.689" y="118" width="77.1834" height="24" filterUnits="userSpaceOnUse" color-interpolation-filters="sRGB">
<feFlood flood-opacity="0" result="BackgroundImageFix"/>
<feColorMatrix in="SourceAlpha" type="matrix" values="0 0 0 0 0 0 0 0 0 0 0 0 0 0 0 0 0 0 127 0"/>
<feOffset/>
<feGaussianBlur stdDeviation="1"/>
<feColorMatrix type="matrix" values="0 0 0 0 0 0 0 0 0 0 0 0 0 0 0 0 0 0 0.65 0"/>
<feBlend mode="normal" in2="BackgroundImageFix" result="effect1_dropShadow"/>
<feBlend mode="normal" in="SourceGraphic" in2="effect1_dropShadow" result="shape"/>
</filter>
<linearGradient id="paint0_linear" x1="73.2417" y1="7.24607" x2="175.592" y2="176.985" gradientUnits="userSpaceOnUse">
<stop stop-color="#939393"/>
<stop offset="0.213542" stop-color="#EEEEEE"/>
<stop offset="0.515625" stop-color="#8A8A8A"/>
<stop offset="0.807292" stop-color="#DCDCDC"/>
<stop offset="1" stop-color="#939393"/>
</linearGradient>
<linearGradient id="paint1_linear" x1="71.1639" y1="50.5414" x2="150.275" y2="206.911" gradientUnits="userSpaceOnUse">
<stop stop-color="#939393"/>
<stop offset="0.213542" stop-color="#EEEEEE"/>
<stop offset="0.515625" stop-color="#8A8A8A"/>
<stop offset="0.807292" stop-color="#DCDCDC"/>
<stop offset="1" stop-color="#939393"/>
</linearGradient>
<linearGradient id="paint2_linear" x1="143.5" y1="126" x2="143.5" y2="141" gradientUnits="userSpaceOnUse">
<stop stop-opacity="0"/>
<stop offset="1"/>
</linearGradient>
<linearGradient id="paint3_linear" x1="144.5" y1="118" x2="144.5" y2="142" gradientUnits="userSpaceOnUse">
<stop stop-color="#224ADA"/>
<stop offset="1" stop-color="#A9B2D3"/>
</linearGradient>
<linearGradient id="paint4_linear" x1="144.5" y1="119" x2="144.5" y2="141" gradientUnits="userSpaceOnUse">
<stop stop-color="white"/>
<stop offset="1" stop-color="#D1DEE9"/>
</linearGradient>
</defs>
</svg>
